<?xml version="1.0" encoding="utf-8"?>
<!-- Generator: Adobe Illustrator 27.3.1, SVG Export Plug-In . SVG Version: 6.00 Build 0)  -->
<svg version="1.1" id="Layer_1" xmlns="http://www.w3.org/2000/svg" xmlns:xlink="http://www.w3.org/1999/xlink" x="0px" y="0px"
	 viewBox="0 0 371 220" style="enable-background:new 0 0 371 220;" xml:space="preserve">
<style type="text/css">
	.st0{fill:#FFFFFF;}
	.st1{fill:#00305E;}
	.st2{fill:none;stroke:#EE4A62;stroke-width:2;stroke-linecap:round;stroke-linejoin:round;}
	.st3{fill:none;stroke:#EE4A62;stroke-width:2;stroke-miterlimit:10;}
	.st4{fill:#EF5269;}
	.st5{fill:#525252;}
</style>
<g>
	<path shape-rendering="crispEdges" class="st0" d="M60,70c0-27.6,22.4-50,50-50h191c5.5,0,10,4.5,10,10v40c0,27.6-22.4,50-50,50H70
		c-5.5,0-10-4.5-10-10V70z"/>
	<circle class="st1" cx="119" cy="70" r="30"/>
	<path class="st2" d="M126.7,61.8c-0.3,3.6-3,6.6-6,6.6c-3,0-5.8-2.9-6-6.6c-0.3-3.8,2.4-6.6,6-6.6C124.3,55.3,127,58.2,126.7,61.8z
		"/>
	<path class="st3" d="M120.7,72.8c-5.9,0-12,3.3-13.1,9.5c-0.1,0.7,0.3,1.5,1.1,1.5h24.1c0.8,0,1.2-0.7,1.1-1.5
		C132.7,76.1,126.6,72.8,120.7,72.8z"/>
	<path class="st2" d="M107,64v7.7 M110.8,67.9h-7.7"/>
	<path class="st4" d="M164,64v-1.6c1.7-1.3,3.1-2.4,4.3-3.5c1.2-1,2.3-1.9,3.1-2.8c0.8-0.8,1.5-1.6,2-2.2c0.5-0.7,0.9-1.3,1.1-1.8
		c0.2-0.6,0.3-1.1,0.3-1.6c0-0.7-0.2-1.3-0.5-1.9c-0.3-0.6-0.8-1-1.4-1.4c-0.6-0.3-1.2-0.5-1.9-0.5c-0.7,0-1.3,0.2-1.9,0.5
		c-0.6,0.3-1.1,0.8-1.5,1.5c-0.4,0.6-0.7,1.4-0.9,2.3l-2.7-1.2c0.2-0.9,0.5-1.7,0.9-2.4c0.4-0.7,0.9-1.4,1.6-1.9
		c0.6-0.5,1.3-0.9,2.1-1.2c0.8-0.3,1.6-0.4,2.5-0.4c1.3,0,2.5,0.3,3.6,0.9c1.1,0.6,1.9,1.4,2.5,2.4c0.6,1,0.9,2.1,0.9,3.4
		c0,0.6-0.1,1.3-0.3,1.9c-0.2,0.6-0.5,1.2-0.9,1.9c-0.4,0.6-0.9,1.3-1.6,2c-0.7,0.7-1.5,1.5-2.4,2.3c-0.9,0.8-2.1,1.7-3.3,2.7h8.9
		V64H164z M190.1,64.4c-1.6,0-3-0.4-4.3-1.3c-1.2-0.9-2.2-2.1-2.8-3.6c-0.7-1.5-1-3.3-1-5.4c0-2,0.3-3.8,1-5.4
		c0.7-1.5,1.6-2.7,2.8-3.6c1.2-0.9,2.6-1.3,4.3-1.3c1.6,0,3,0.4,4.3,1.3c1.2,0.9,2.2,2.1,2.8,3.6c0.7,1.5,1,3.3,1,5.4
		c0,2-0.3,3.8-1,5.4c-0.7,1.5-1.6,2.7-2.8,3.6C193.2,64,191.7,64.4,190.1,64.4z M190.1,61.6c1,0,1.8-0.3,2.5-0.9
		c0.7-0.6,1.3-1.5,1.7-2.6c0.4-1.1,0.6-2.5,0.6-4c0-1.5-0.2-2.9-0.6-4c-0.4-1.1-0.9-2-1.7-2.6c-0.7-0.6-1.6-0.9-2.5-0.9
		c-1,0-1.8,0.3-2.5,0.9c-0.7,0.6-1.3,1.5-1.7,2.6c-0.4,1.1-0.6,2.4-0.6,4c0,1.5,0.2,2.9,0.6,4c0.4,1.1,1,2,1.7,2.6
		C188.3,61.3,189.2,61.6,190.1,61.6z M202.7,64V44.2h3.1v8.6l7.8-8.6h3.9l-8.9,9.6l10,10.2h-4.4l-8.5-8.6V64H202.7z M225.9,60.2
		v-4.9h-4.9v-2.6h4.9v-4.9h2.6v4.9h4.9v2.6h-4.9v4.9H225.9z"/>
	<path class="st5" d="M165.5,77.7v3.5h3.8v1.1h-3.8v3.6h4.3V87h-5.6V76.5h5.6v1.1H165.5z M175.9,78.6c1,0,1.8,0.3,2.4,0.9
		c0.6,0.6,0.9,1.5,0.9,2.6V87h-1.4v-4.7c0-0.8-0.2-1.4-0.6-1.9c-0.4-0.4-1-0.7-1.7-0.7c-0.7,0-1.3,0.2-1.7,0.7
		c-0.4,0.5-0.6,1.1-0.6,2V87h-1.4v-8.2h1.4v1.2c0.3-0.4,0.6-0.7,1.1-1C174.8,78.7,175.3,78.6,175.9,78.6z M182.8,80.1
		c0.2-0.5,0.6-0.8,1-1.1c0.4-0.3,1-0.4,1.6-0.4V80h-0.4c-1.5,0-2.3,0.8-2.3,2.5V87h-1.4v-8.2h1.4V80.1z M190.6,87.1
		c-0.8,0-1.5-0.2-2.1-0.5c-0.6-0.3-1.1-0.8-1.5-1.5c-0.3-0.7-0.5-1.4-0.5-2.2c0-0.8,0.2-1.6,0.5-2.2c0.4-0.7,0.9-1.1,1.5-1.5
		c0.6-0.3,1.3-0.5,2.1-0.5s1.5,0.2,2.1,0.5c0.6,0.3,1.1,0.8,1.5,1.5c0.4,0.6,0.6,1.4,0.6,2.2s-0.2,1.6-0.6,2.2
		c-0.4,0.6-0.9,1.1-1.5,1.5C192.1,87,191.4,87.1,190.6,87.1z M190.6,85.9c0.5,0,0.9-0.1,1.4-0.3c0.4-0.2,0.8-0.6,1-1
		c0.3-0.5,0.4-1,0.4-1.7s-0.1-1.2-0.4-1.7c-0.3-0.5-0.6-0.8-1-1c-0.4-0.2-0.9-0.3-1.4-0.3c-0.5,0-1,0.1-1.4,0.3
		c-0.4,0.2-0.7,0.6-1,1s-0.4,1-0.4,1.7c0,0.7,0.1,1.2,0.4,1.7c0.2,0.5,0.6,0.8,1,1C189.7,85.8,190.1,85.9,190.6,85.9z M198,75.9V87
		h-1.4V75.9H198z M201.7,75.9V87h-1.4V75.9H201.7z M211.5,82.6c0,0.3,0,0.5,0,0.8h-6.6c0.1,0.8,0.3,1.4,0.8,1.9
		c0.5,0.4,1.1,0.7,1.8,0.7c0.6,0,1.1-0.1,1.5-0.4c0.4-0.3,0.7-0.6,0.8-1.1h1.5c-0.2,0.8-0.7,1.4-1.3,1.9c-0.7,0.5-1.5,0.7-2.5,0.7
		c-0.8,0-1.5-0.2-2.1-0.5c-0.6-0.3-1.1-0.8-1.4-1.5c-0.4-0.7-0.5-1.4-0.5-2.2s0.2-1.6,0.5-2.2s0.8-1.1,1.4-1.5
		c0.6-0.3,1.3-0.5,2.1-0.5c0.8,0,1.5,0.2,2.1,0.5c0.6,0.3,1.1,0.8,1.4,1.4C211.3,81.2,211.5,81.8,211.5,82.6z M210.1,82.3
		c0-0.5-0.1-1-0.3-1.3c-0.2-0.4-0.5-0.7-0.9-0.9c-0.4-0.2-0.8-0.3-1.3-0.3c-0.7,0-1.3,0.2-1.8,0.7c-0.5,0.4-0.8,1.1-0.8,1.8H210.1z
		 M212.8,82.9c0-0.8,0.2-1.6,0.5-2.2c0.3-0.6,0.8-1.1,1.4-1.5c0.6-0.3,1.3-0.5,2-0.5c0.6,0,1.2,0.2,1.8,0.5c0.5,0.3,1,0.7,1.3,1.2
		v-4.3h1.4V87h-1.4v-1.5c-0.3,0.5-0.7,0.9-1.2,1.2c-0.5,0.3-1.2,0.5-1.9,0.5c-0.7,0-1.4-0.2-2-0.5c-0.6-0.4-1.1-0.9-1.4-1.5
		S212.8,83.7,212.8,82.9z M219.8,82.9c0-0.6-0.1-1.2-0.4-1.6s-0.6-0.8-1-1c-0.4-0.2-0.9-0.4-1.4-0.4c-0.5,0-1,0.1-1.4,0.4
		c-0.4,0.2-0.8,0.6-1,1s-0.4,1-0.4,1.6c0,0.6,0.1,1.2,0.4,1.7c0.2,0.5,0.6,0.8,1,1.1c0.4,0.2,0.9,0.4,1.4,0.4c0.5,0,1-0.1,1.4-0.4
		c0.4-0.2,0.8-0.6,1-1.1C219.6,84,219.8,83.5,219.8,82.9z M228.8,85.9h3.7V87h-5V76.5h1.4V85.9z M241.4,82.6c0,0.3,0,0.5,0,0.8h-6.6
		c0,0.8,0.3,1.4,0.8,1.9c0.5,0.4,1.1,0.7,1.8,0.7c0.6,0,1.1-0.1,1.5-0.4c0.4-0.3,0.7-0.6,0.8-1.1h1.5c-0.2,0.8-0.7,1.4-1.3,1.9
		c-0.7,0.5-1.5,0.7-2.5,0.7c-0.8,0-1.5-0.2-2.1-0.5c-0.6-0.3-1.1-0.8-1.4-1.5c-0.3-0.7-0.5-1.4-0.5-2.2s0.2-1.6,0.5-2.2
		c0.3-0.6,0.8-1.1,1.4-1.5c0.6-0.3,1.3-0.5,2.1-0.5c0.8,0,1.5,0.2,2.1,0.5c0.6,0.3,1.1,0.8,1.4,1.4
		C241.3,81.2,241.4,81.8,241.4,82.6z M240,82.3c0-0.5-0.1-1-0.3-1.3c-0.2-0.4-0.5-0.7-0.9-0.9c-0.4-0.2-0.8-0.3-1.3-0.3
		c-0.7,0-1.3,0.2-1.8,0.7c-0.5,0.4-0.8,1.1-0.8,1.8H240z M242.7,82.9c0-0.8,0.2-1.6,0.5-2.2c0.3-0.6,0.8-1.1,1.4-1.5
		c0.6-0.3,1.3-0.5,2-0.5c0.7,0,1.3,0.2,1.9,0.5s0.9,0.7,1.2,1.2v-1.5h1.4V87h-1.4v-1.5c-0.3,0.5-0.7,0.9-1.2,1.2
		c-0.5,0.3-1.2,0.5-1.9,0.5c-0.7,0-1.4-0.2-2-0.5c-0.6-0.4-1.1-0.9-1.4-1.5C242.9,84.4,242.7,83.7,242.7,82.9z M249.7,82.9
		c0-0.6-0.1-1.2-0.4-1.6s-0.6-0.8-1-1c-0.4-0.2-0.9-0.4-1.4-0.4c-0.5,0-1,0.1-1.4,0.4c-0.4,0.2-0.8,0.6-1,1s-0.4,1-0.4,1.6
		c0,0.6,0.1,1.2,0.4,1.7c0.2,0.5,0.6,0.8,1,1.1c0.4,0.2,0.9,0.4,1.4,0.4c0.5,0,1-0.1,1.4-0.4c0.4-0.2,0.8-0.6,1-1.1
		C249.6,84,249.7,83.5,249.7,82.9z M254.7,80.1c0.2-0.5,0.6-0.8,1-1.1c0.5-0.3,1-0.4,1.6-0.4V80H257c-1.5,0-2.3,0.8-2.3,2.5V87h-1.4
		v-8.2h1.4V80.1z M263,78.6c1,0,1.8,0.3,2.4,0.9c0.6,0.6,0.9,1.5,0.9,2.6V87H265v-4.7c0-0.8-0.2-1.4-0.6-1.9c-0.4-0.4-1-0.7-1.7-0.7
		c-0.7,0-1.3,0.2-1.7,0.7c-0.4,0.5-0.6,1.1-0.6,2V87H259v-8.2h1.4v1.2c0.3-0.4,0.6-0.7,1.1-1C261.9,78.7,262.4,78.6,263,78.6z
		 M276.1,82.6c0,0.3,0,0.5,0,0.8h-6.6c0.1,0.8,0.3,1.4,0.8,1.9c0.5,0.4,1.1,0.7,1.8,0.7c0.6,0,1.1-0.1,1.5-0.4
		c0.4-0.3,0.7-0.6,0.8-1.1h1.5c-0.2,0.8-0.7,1.4-1.3,1.9c-0.7,0.5-1.5,0.7-2.5,0.7c-0.8,0-1.5-0.2-2.1-0.5c-0.6-0.3-1.1-0.8-1.4-1.5
		c-0.4-0.7-0.5-1.4-0.5-2.2s0.2-1.6,0.5-2.2c0.3-0.6,0.8-1.1,1.4-1.5c0.6-0.3,1.3-0.5,2.1-0.5c0.8,0,1.5,0.2,2.1,0.5
		c0.6,0.3,1.1,0.8,1.4,1.4C275.9,81.2,276.1,81.8,276.1,82.6z M274.6,82.3c0-0.5-0.1-1-0.3-1.3c-0.2-0.4-0.5-0.7-0.9-0.9
		c-0.4-0.2-0.8-0.3-1.3-0.3c-0.7,0-1.3,0.2-1.8,0.7c-0.5,0.4-0.8,1.1-0.8,1.8H274.6z M279.2,80.1c0.2-0.5,0.6-0.8,1-1.1
		c0.5-0.3,1-0.4,1.6-0.4V80h-0.4c-1.5,0-2.3,0.8-2.3,2.5V87h-1.4v-8.2h1.4V80.1z M286.4,87.1c-0.6,0-1.2-0.1-1.7-0.3
		c-0.5-0.2-0.9-0.5-1.2-0.9c-0.3-0.4-0.4-0.8-0.5-1.3h1.4c0,0.4,0.2,0.7,0.6,1c0.4,0.3,0.8,0.4,1.4,0.4c0.5,0,0.9-0.1,1.2-0.3
		c0.3-0.2,0.5-0.5,0.5-0.9c0-0.4-0.2-0.6-0.5-0.8c-0.3-0.2-0.8-0.4-1.5-0.5c-0.6-0.2-1.1-0.3-1.5-0.5c-0.4-0.2-0.7-0.4-1-0.7
		c-0.3-0.3-0.4-0.8-0.4-1.3c0-0.4,0.1-0.8,0.4-1.2c0.2-0.4,0.6-0.6,1.1-0.8c0.5-0.2,1-0.3,1.6-0.3c0.9,0,1.6,0.2,2.2,0.7
		s0.9,1.1,0.9,1.9h-1.4c0-0.4-0.2-0.8-0.5-1c-0.3-0.3-0.7-0.4-1.3-0.4c-0.5,0-0.9,0.1-1.2,0.3c-0.3,0.2-0.4,0.5-0.4,0.8
		c0,0.3,0.1,0.5,0.3,0.7c0.2,0.2,0.4,0.3,0.7,0.4c0.3,0.1,0.6,0.2,1.1,0.3c0.6,0.2,1.1,0.3,1.4,0.5c0.4,0.2,0.7,0.4,0.9,0.7
		c0.3,0.3,0.4,0.7,0.4,1.2c0,0.4-0.1,0.9-0.4,1.2c-0.2,0.4-0.6,0.6-1.1,0.9C287.5,87,287,87.1,286.4,87.1z"/>
</g>
</svg>
