<?xml version="1.0" encoding="utf-8"?>
<!-- Generator: Adobe Illustrator 27.3.1, SVG Export Plug-In . SVG Version: 6.00 Build 0)  -->
<svg version="1.1" id="Layer_1" xmlns="http://www.w3.org/2000/svg" xmlns:xlink="http://www.w3.org/1999/xlink" x="0px" y="0px"
	 viewBox="0 0 156 50" style="enable-background:new 0 0 156 50;" xml:space="preserve">
<style type="text/css">
	.st0{clip-path:url(#SVGID_00000049937581987154297700000000731050952881445033_);}
	.st1{fill:url(#SVGID_00000116955962530120964160000009093809577525121723_);}
	.st2{fill:#FFFFFF;}
</style>
<g>
	<defs>
		<rect id="SVGID_1_" width="156" height="50"/>
	</defs>
	<clipPath id="SVGID_00000067943083817115256620000012324711940793867196_">
		<use xlink:href="#SVGID_1_"  style="overflow:visible;"/>
	</clipPath>
	<g style="clip-path:url(#SVGID_00000067943083817115256620000012324711940793867196_);">
		
			<linearGradient id="SVGID_00000057851040269977989710000002546901872360269707_" gradientUnits="userSpaceOnUse" x1="41.3083" y1="46.2387" x2="9.3083" y2="8.4887" gradientTransform="matrix(1 0 0 -1 0 52)">
			<stop  offset="0" style="stop-color:#2FB97D"/>
			<stop  offset="1" style="stop-color:#1AB69D"/>
		</linearGradient>
		<path style="fill:url(#SVGID_00000057851040269977989710000002546901872360269707_);" d="M25,0L25,0c13.8,0,25,11.2,25,25l0,0
			c0,13.8-11.2,25-25,25l0,0C11.2,50,0,38.8,0,25l0,0C0,11.2,11.2,0,25,0z"/>
		<path class="st2" d="M23.9,31.5c0.2,0.1,0.5,0.1,0.7,0.2c0.2,0,0.5,0,0.7,0c0.6,0,1.2-0.1,1.7-0.3c0.6-0.2,1.1-0.4,1.6-0.7
			c0.5-0.3,0.9-0.7,1.3-1.1c0.4-0.5,3.9-5.1,3.5-4.6l3.6-4.9c-0.6,0.8-2.9,14.1-3.6,14.8c-0.7,0.7-1.5,1.2-2.4,1.7
			c-0.9,0.5-1.8,0.8-2.7,1c-0.9,0.2-1.9,0.4-2.9,0.4c-1.7,0-3.3-0.3-4.8-1c-1.5-0.6-2.8-1.5-3.9-2.7c-1.1-1.1-2-2.5-2.6-4.1
			c-0.6-1.6-1-3.3-1-5.2c0-1.9,0.3-3.7,1-5.3c0.6-1.6,1.5-3,2.6-4.1c1.1-1.1,2.4-2,3.9-2.6c1.5-0.6,3.1-0.9,4.8-0.9c1,0,2,0.1,3,0.4
			s1.9,0.6,2.7,1.1c0.9,0.5,1.7,1,2.4,1.7c0.8,0.7,1.4,1.4,2,2.2L23.9,31.5z M27,18.6c-0.3-0.1-0.6-0.2-0.9-0.2c-0.3,0-0.6,0-0.9,0
			c-0.8,0-1.6,0.2-2.4,0.5c-0.7,0.3-1.4,0.8-1.9,1.3c-0.5,0.6-1,1.3-1.3,2.1c-0.3,0.8-0.5,1.7-0.5,2.8c0,0.2,0,0.5,0,0.8
			c0,0.3,0.1,0.6,0.1,0.9c0.1,0.3,0.1,0.6,0.2,0.8s0.2,0.5,0.3,0.7L27,18.6z"/>
		<path class="st2" d="M64.1,33V16.5h9.5v3.4h-5.6V23h5.4v3.4h-5.4v3.2h5.6V33H64.1z M81.2,33.3c-0.9,0-1.8-0.2-2.5-0.7
			c-0.8-0.5-1.4-1.1-1.8-1.9c-0.5-0.8-0.7-1.8-0.7-2.8c0-1,0.2-2,0.7-2.8s1-1.5,1.8-1.9c0.8-0.5,1.7-0.7,2.7-0.7
			c0.6,0,1.3,0.1,1.8,0.3c0.6,0.2,1.1,0.5,1.5,0.9v-7.9h3.7V33h-3.7v-1.1c-0.5,0.4-1,0.8-1.6,1C82.4,33.2,81.8,33.3,81.2,33.3z
			 M82.3,30.2c0.5,0,0.9-0.1,1.2-0.3c0.4-0.2,0.6-0.5,0.8-0.8c0.2-0.4,0.3-0.8,0.3-1.2c0-0.5-0.1-0.9-0.3-1.2
			c-0.2-0.4-0.5-0.6-0.8-0.8c-0.3-0.2-0.7-0.3-1.2-0.3c-0.4,0-0.8,0.1-1.2,0.3c-0.3,0.2-0.6,0.5-0.8,0.9C80.1,27,80,27.5,80,27.9
			c0,0.4,0.1,0.8,0.3,1.2c0.2,0.3,0.5,0.6,0.8,0.8C81.4,30.1,81.8,30.2,82.3,30.2z M96.9,33.3c-2,0-3.4-0.4-4.3-1.1
			c-0.9-0.8-1.3-2-1.3-3.7v-5.8h3.7v4.9c0,1,0.1,1.7,0.4,2.1c0.3,0.4,0.8,0.6,1.5,0.6c0.7,0,1.2-0.2,1.5-0.6
			c0.3-0.4,0.4-1.1,0.4-2.1v-4.9h3.6v5.8c0,1.7-0.4,2.9-1.3,3.7C100.3,32.9,98.9,33.3,96.9,33.3z M110,33l-4.9-16.5h1.7L111,31
			l4.8-14.5h1.2l4.9,14.5l4.1-14.5h1.7L122.7,33H121l-4.6-13.5L111.8,33H110z M134.4,33.3c-1.1,0-2-0.2-2.9-0.7
			c-0.8-0.5-1.5-1.1-2-1.9c-0.5-0.8-0.7-1.7-0.7-2.8c0-0.8,0.1-1.5,0.4-2.1c0.3-0.7,0.7-1.2,1.2-1.8c0.5-0.5,1.1-0.9,1.7-1.2
			c0.7-0.3,1.3-0.4,2.1-0.4c1,0,1.9,0.2,2.7,0.7c0.8,0.4,1.4,1,1.9,1.8c0.5,0.8,0.7,1.7,0.7,2.7c0,0.1,0,0.1,0,0.2c0,0,0,0.1,0,0.2
			h-9.2c0,0.8,0.2,1.5,0.5,2.1s0.9,1.1,1.5,1.5c0.6,0.3,1.4,0.5,2.2,0.5c0.8,0,1.5-0.2,2.1-0.5c0.6-0.3,1.1-0.8,1.6-1.4l1.1,0.6
			c-0.5,0.8-1.2,1.4-2,1.9C136.3,33.1,135.4,33.3,134.4,33.3z M130.3,26.9h7.7c-0.1-0.6-0.3-1.2-0.7-1.7c-0.4-0.5-0.8-0.9-1.4-1.2
			c-0.5-0.3-1.1-0.4-1.8-0.4c-0.7,0-1.3,0.1-1.8,0.4c-0.6,0.3-1,0.7-1.4,1.1C130.6,25.7,130.4,26.3,130.3,26.9z M148.6,33.3
			c-0.9,0-1.7-0.2-2.5-0.7c-0.7-0.4-1.3-1-1.8-1.8V33h-1.5V15.8h1.5v9.1c0.4-0.8,1-1.4,1.7-1.8c0.7-0.4,1.6-0.6,2.5-0.6
			c1,0,1.9,0.2,2.6,0.7c0.8,0.5,1.4,1.1,1.8,1.9c0.4,0.8,0.7,1.7,0.7,2.8c0,1.1-0.2,2-0.7,2.8c-0.4,0.8-1.1,1.5-1.8,1.9
			C150.5,33.1,149.6,33.3,148.6,33.3z M148.3,32c0.8,0,1.4-0.2,2-0.5c0.6-0.4,1.1-0.9,1.4-1.5c0.3-0.6,0.5-1.4,0.5-2.2
			c0-0.8-0.2-1.5-0.5-2.2c-0.3-0.6-0.8-1.1-1.4-1.5c-0.6-0.4-1.3-0.5-2-0.5c-0.8,0-1.4,0.2-2,0.5c-0.6,0.4-1.1,0.8-1.4,1.5
			c-0.3,0.6-0.5,1.3-0.5,2.2c0,0.8,0.2,1.5,0.5,2.2c0.3,0.6,0.8,1.1,1.4,1.5C146.8,31.9,147.5,32,148.3,32z"/>
	</g>
</g>
<image style="overflow:visible;" width="496" height="503" xlink:href="C:\Users\my pc\Downloads\BE-Up_India-removebg-preview.png"  transform="matrix(0.1076 0 0 0.1048 -1.6567 -1.3043)">
</image>
</svg>
