<?xml version="1.0" encoding="utf-8"?>
<!-- Generator: Adobe Illustrator 27.3.1, SVG Export Plug-In . SVG Version: 6.00 Build 0)  -->
<svg version="1.1" id="Layer_1" xmlns="http://www.w3.org/2000/svg" xmlns:xlink="http://www.w3.org/1999/xlink" x="0px" y="0px"
	 viewBox="0 0 156 50" style="enable-background:new 0 0 156 50;" xml:space="preserve">
<style type="text/css">
	.st0{fill:#00315E;}
	.st1{font-family:'Brolink-DEMO';}
	.st2{font-size:16.6562px;}
	.st3{fill:#FFC700;}
	.st4{fill:none;stroke:#243A7A;stroke-width:0.1;stroke-miterlimit:10;}
	.st5{fill:#FFC700;stroke:#000000;stroke-width:0.1;stroke-miterlimit:10;}
	.st6{clip-path:url(#SVGID_00000052089732947931201370000009798350649406767516_);}
	.st7{fill:none;}
	.st8{fill:#FFFFFF;}
</style>
<g>
	
		<image style="overflow:visible;enable-background:new    ;" width="522" height="530" xlink:href="C:\Users\my pc\Downloads\BE-Up India.png"  transform="matrix(9.677745e-02 0 0 9.245283e-02 1.3083 0.7826)">
	</image>
	<text transform="matrix(0.8364 0 0 1 52.8711 31.8965)" class="st0 st1 st2">BE</text>
	<text transform="matrix(0.8364 0 0 1 74.4502 31.8965)" class="st3 st1 st2">-</text>
	<text transform="matrix(0.8364 0 0 1 74.4502 31.8965)" class="st4 st1 st2">-</text>
	<text transform="matrix(0.8364 0 0 1 82.396 31.8965)" class="st0 st1 st2">Up India</text>
	<rect x="138.3" y="20.2" class="st5" width="2.4" height="2.3"/>
	<g>
		<g>
			<defs>
				<polygon id="SVGID_1_" points="-0.6,-1.5 155.4,-1.5 155.4,48.5 -1.5,49.2 				"/>
			</defs>
			<clipPath id="SVGID_00000075877375937472284840000000835597850142528923_">
				<use xlink:href="#SVGID_1_"  style="overflow:visible;"/>
			</clipPath>
			<g style="clip-path:url(#SVGID_00000075877375937472284840000000835597850142528923_);">
				<path class="st7" d="M7.6,33c0,1.6,0.1,3.2,0.3,4.8c0.8,1.4,1.7,2.8,2.7,4.1c0.6-0.2,1.3-0.4,2-0.4c4.8,0.2,9.7,1,14.6,1.6
					c1.5,0,3,0.1,4.5,0.2c0.4,0,0.8,0.1,1.1,0.1c2.2-2.1,4-4.5,5.4-7.2c0.1-0.3,0.3-0.6,0.5-0.9l0,0l0,0c0.1-0.1,0.2-0.2,0.3-0.4
					c0.1-0.1,0.2-0.2,0.3-0.4C36.2,29,28.8,25,20.3,25c-4.9,0-9.4,1.3-12.9,3.5c-0.5,0.3-0.9,0.6-1.4,0.9C6.9,30.2,7.6,31.4,7.6,33z
					"/>
			</g>
		</g>
	</g>
</g>
<path class="st8" d="M10.2,36.4"/>
<rect x="24.4" y="30.3" class="st7" width="5.5" height="11"/>
</svg>
